<?xml version="1.0" standalone="no"?>
<!DOCTYPE svg PUBLIC "-//W3C//DTD SVG 20010904//EN"
 "http://www.w3.org/TR/2001/REC-SVG-20010904/DTD/svg10.dtd">
<svg version="1.0" xmlns="http://www.w3.org/2000/svg"
 width="700.000000pt" height="700.000000pt" viewBox="0 0 700.000000 700.000000"
 preserveAspectRatio="xMidYMid meet">
<metadata>
Created by potrace 1.11, written by Peter Selinger 2001-2013
</metadata>
<g transform="translate(0.000000,700.000000) scale(0.100000,-0.100000)"
fill="#000000" stroke="none">
<path d="M2148 6446 c-444 -182 -809 -333 -812 -336 -6 -7 -1336 -4273 -1333
-4276 4 -4 3801 -1713 3813 -1716 7 -2 670 616 1474 1372 804 756 1482 1393
1506 1415 l44 40 -349 1194 -348 1194 -1574 714 c-866 392 -1583 717 -1594
722 -17 7 -192 -62 -827 -323z m659 -982 c46 -44 83 -88 83 -97 0 -10 -22 -77
-49 -150 -244 -660 -665 -1571 -1161 -2510 -72 -137 -134 -255 -137 -263 -4
-12 34 -14 264 -14 309 0 1336 -20 1342 -25 8 -9 -144 -194 -293 -357 l-80
-88 -60 0 c-56 0 -344 23 -441 35 -22 3 -98 12 -170 21 -71 8 -267 35 -435 60
-168 24 -306 44 -307 44 -1 0 -12 -18 -24 -40 -13 -22 -28 -39 -34 -36 -91 38
-342 149 -348 155 -4 4 20 56 54 117 506 903 1062 2287 1349 3356 l43 157 161
-142 c88 -78 198 -178 243 -223z m3048 -1184 c-11 -74 -73 -307 -116 -435
-120 -355 -334 -776 -571 -1122 -455 -665 -1159 -1313 -1665 -1532 -81 -35
-110 -38 -156 -15 -89 46 -232 213 -263 308 -67 201 148 1354 476 2551 66 240
171 598 202 688 l14 39 40 -44 c102 -112 424 -521 424 -540 0 -5 -34 -116 -76
-246 -91 -283 -199 -652 -296 -1007 -81 -299 -347 -1358 -342 -1364 5 -6 102
58 219 145 413 307 802 789 1070 1324 201 401 344 838 400 1222 36 252 39 551
5 668 -5 19 -10 39 -10 45 0 5 146 -136 326 -315 l325 -325 -6 -45z"/>
</g>
</svg>
